<mxfile host="app.diagrams.net" modified="2023-10-31T17:12:48.286Z" agent="Mozilla/5.0 (Macintosh; Intel Mac OS X 10_15_7) AppleWebKit/605.1.15 (KHTML, like Gecko) Version/16.4 Safari/605.1.15" etag="41srtp8XUe_Sn2HhIby7" version="22.0.8" type="github">
  <diagram name="Страница — 1" id="LzMCHIkyoPyYnam3HbV3">
    <mxGraphModel dx="1158" dy="1853" grid="1" gridSize="10" guides="1" tooltips="1" connect="1" arrows="1" fold="1" page="1" pageScale="1" pageWidth="827" pageHeight="1169" math="0" shadow="0">
      <root>
        <mxCell id="0" />
        <mxCell id="1" parent="0" />
        <mxCell id="Bqd4WR3j3yUnf75U1oX0-1" style="edgeStyle=orthogonalEdgeStyle;rounded=0;orthogonalLoop=1;jettySize=auto;html=1;" parent="1" source="Bqd4WR3j3yUnf75U1oX0-5" target="Bqd4WR3j3yUnf75U1oX0-7" edge="1">
          <mxGeometry relative="1" as="geometry" />
        </mxCell>
        <mxCell id="Bqd4WR3j3yUnf75U1oX0-2" style="edgeStyle=orthogonalEdgeStyle;rounded=0;orthogonalLoop=1;jettySize=auto;html=1;entryX=0.5;entryY=1;entryDx=0;entryDy=0;" parent="1" source="Bqd4WR3j3yUnf75U1oX0-5" target="Bqd4WR3j3yUnf75U1oX0-12" edge="1">
          <mxGeometry relative="1" as="geometry" />
        </mxCell>
        <mxCell id="Bqd4WR3j3yUnf75U1oX0-3" style="edgeStyle=orthogonalEdgeStyle;rounded=0;orthogonalLoop=1;jettySize=auto;html=1;entryX=0.5;entryY=1;entryDx=0;entryDy=0;" parent="1" source="Bqd4WR3j3yUnf75U1oX0-5" target="Bqd4WR3j3yUnf75U1oX0-11" edge="1">
          <mxGeometry relative="1" as="geometry" />
        </mxCell>
        <mxCell id="Bqd4WR3j3yUnf75U1oX0-4" style="edgeStyle=orthogonalEdgeStyle;rounded=0;orthogonalLoop=1;jettySize=auto;html=1;entryX=0.5;entryY=1;entryDx=0;entryDy=0;" parent="1" source="Bqd4WR3j3yUnf75U1oX0-5" target="Bqd4WR3j3yUnf75U1oX0-46" edge="1">
          <mxGeometry relative="1" as="geometry" />
        </mxCell>
        <mxCell id="Bqd4WR3j3yUnf75U1oX0-5" value="User" style="shape=umlActor;verticalLabelPosition=bottom;verticalAlign=top;html=1;outlineConnect=0;" parent="1" vertex="1">
          <mxGeometry x="110" y="310" width="30" height="60" as="geometry" />
        </mxCell>
        <mxCell id="Bqd4WR3j3yUnf75U1oX0-6" value="Magic document main page" style="swimlane;whiteSpace=wrap;html=1;" parent="1" vertex="1">
          <mxGeometry x="190" y="-10" width="1020" height="940" as="geometry" />
        </mxCell>
        <mxCell id="Bqd4WR3j3yUnf75U1oX0-7" value="Create new document" style="ellipse;whiteSpace=wrap;html=1;" parent="Bqd4WR3j3yUnf75U1oX0-6" vertex="1">
          <mxGeometry x="30" y="440" width="120" height="80" as="geometry" />
        </mxCell>
        <mxCell id="Bqd4WR3j3yUnf75U1oX0-8" style="edgeStyle=orthogonalEdgeStyle;rounded=0;orthogonalLoop=1;jettySize=auto;html=1;dashed=1;endArrow=open;endFill=0;entryX=1;entryY=0.5;entryDx=0;entryDy=0;" parent="Bqd4WR3j3yUnf75U1oX0-6" source="Bqd4WR3j3yUnf75U1oX0-10" target="Bqd4WR3j3yUnf75U1oX0-7" edge="1">
          <mxGeometry relative="1" as="geometry">
            <mxPoint x="90" y="530" as="targetPoint" />
          </mxGeometry>
        </mxCell>
        <mxCell id="Bqd4WR3j3yUnf75U1oX0-9" value="include" style="edgeLabel;html=1;align=center;verticalAlign=middle;resizable=0;points=[];" parent="Bqd4WR3j3yUnf75U1oX0-8" vertex="1" connectable="0">
          <mxGeometry x="-0.0631" y="1" relative="1" as="geometry">
            <mxPoint as="offset" />
          </mxGeometry>
        </mxCell>
        <mxCell id="Bqd4WR3j3yUnf75U1oX0-10" value="Select name" style="ellipse;whiteSpace=wrap;html=1;" parent="Bqd4WR3j3yUnf75U1oX0-6" vertex="1">
          <mxGeometry x="250" y="440" width="120" height="80" as="geometry" />
        </mxCell>
        <mxCell id="Bqd4WR3j3yUnf75U1oX0-11" value="Registration" style="ellipse;whiteSpace=wrap;html=1;" parent="Bqd4WR3j3yUnf75U1oX0-6" vertex="1">
          <mxGeometry x="550" y="210" width="120" height="80" as="geometry" />
        </mxCell>
        <mxCell id="Bqd4WR3j3yUnf75U1oX0-12" value="Authorization" style="ellipse;whiteSpace=wrap;html=1;" parent="Bqd4WR3j3yUnf75U1oX0-6" vertex="1">
          <mxGeometry x="310" y="210" width="120" height="80" as="geometry" />
        </mxCell>
        <mxCell id="Bqd4WR3j3yUnf75U1oX0-13" style="edgeStyle=orthogonalEdgeStyle;rounded=0;orthogonalLoop=1;jettySize=auto;html=1;dashed=1;endArrow=open;endFill=0;entryX=0.5;entryY=1;entryDx=0;entryDy=0;" parent="Bqd4WR3j3yUnf75U1oX0-6" source="Bqd4WR3j3yUnf75U1oX0-15" target="Bqd4WR3j3yUnf75U1oX0-7" edge="1">
          <mxGeometry relative="1" as="geometry" />
        </mxCell>
        <mxCell id="Bqd4WR3j3yUnf75U1oX0-14" value="extend" style="edgeLabel;html=1;align=center;verticalAlign=middle;resizable=0;points=[];" parent="Bqd4WR3j3yUnf75U1oX0-13" vertex="1" connectable="0">
          <mxGeometry x="-0.2265" y="1" relative="1" as="geometry">
            <mxPoint as="offset" />
          </mxGeometry>
        </mxCell>
        <mxCell id="Bqd4WR3j3yUnf75U1oX0-15" value="Grant access" style="ellipse;whiteSpace=wrap;html=1;" parent="Bqd4WR3j3yUnf75U1oX0-6" vertex="1">
          <mxGeometry x="250" y="630" width="120" height="80" as="geometry" />
        </mxCell>
        <mxCell id="Bqd4WR3j3yUnf75U1oX0-16" value="extend" style="edgeStyle=orthogonalEdgeStyle;rounded=0;orthogonalLoop=1;jettySize=auto;html=1;entryX=1;entryY=0.5;entryDx=0;entryDy=0;dashed=1;endArrow=open;endFill=0;" parent="Bqd4WR3j3yUnf75U1oX0-6" source="Bqd4WR3j3yUnf75U1oX0-17" target="Bqd4WR3j3yUnf75U1oX0-15" edge="1">
          <mxGeometry relative="1" as="geometry" />
        </mxCell>
        <mxCell id="Bqd4WR3j3yUnf75U1oX0-17" value="General" style="ellipse;whiteSpace=wrap;html=1;" parent="Bqd4WR3j3yUnf75U1oX0-6" vertex="1">
          <mxGeometry x="470" y="540" width="120" height="80" as="geometry" />
        </mxCell>
        <mxCell id="Bqd4WR3j3yUnf75U1oX0-18" value="extend" style="edgeStyle=orthogonalEdgeStyle;rounded=0;orthogonalLoop=1;jettySize=auto;html=1;entryX=1;entryY=0.5;entryDx=0;entryDy=0;endArrow=open;endFill=0;dashed=1;" parent="Bqd4WR3j3yUnf75U1oX0-6" source="Bqd4WR3j3yUnf75U1oX0-19" target="Bqd4WR3j3yUnf75U1oX0-15" edge="1">
          <mxGeometry relative="1" as="geometry" />
        </mxCell>
        <mxCell id="Bqd4WR3j3yUnf75U1oX0-19" value="Concrete user&lt;br&gt;(by mail)" style="ellipse;whiteSpace=wrap;html=1;" parent="Bqd4WR3j3yUnf75U1oX0-6" vertex="1">
          <mxGeometry x="470" y="720" width="120" height="80" as="geometry" />
        </mxCell>
        <mxCell id="Bqd4WR3j3yUnf75U1oX0-20" style="orthogonalLoop=1;jettySize=auto;html=1;entryX=1;entryY=0.5;entryDx=0;entryDy=0;dashed=1;endArrow=open;endFill=0;" parent="Bqd4WR3j3yUnf75U1oX0-6" source="Bqd4WR3j3yUnf75U1oX0-24" target="Bqd4WR3j3yUnf75U1oX0-17" edge="1">
          <mxGeometry relative="1" as="geometry" />
        </mxCell>
        <mxCell id="Bqd4WR3j3yUnf75U1oX0-21" value="extend" style="edgeLabel;html=1;align=center;verticalAlign=middle;resizable=0;points=[];" parent="Bqd4WR3j3yUnf75U1oX0-20" vertex="1" connectable="0">
          <mxGeometry x="-0.6066" y="2" relative="1" as="geometry">
            <mxPoint x="-4" y="-1" as="offset" />
          </mxGeometry>
        </mxCell>
        <mxCell id="Bqd4WR3j3yUnf75U1oX0-22" style="rounded=0;orthogonalLoop=1;jettySize=auto;html=1;entryX=1;entryY=0.5;entryDx=0;entryDy=0;dashed=1;endArrow=open;endFill=0;" parent="Bqd4WR3j3yUnf75U1oX0-6" source="Bqd4WR3j3yUnf75U1oX0-24" target="Bqd4WR3j3yUnf75U1oX0-19" edge="1">
          <mxGeometry relative="1" as="geometry" />
        </mxCell>
        <mxCell id="Bqd4WR3j3yUnf75U1oX0-23" value="extend" style="edgeLabel;html=1;align=center;verticalAlign=middle;resizable=0;points=[];" parent="Bqd4WR3j3yUnf75U1oX0-22" vertex="1" connectable="0">
          <mxGeometry x="-0.657" y="1" relative="1" as="geometry">
            <mxPoint x="-11" as="offset" />
          </mxGeometry>
        </mxCell>
        <mxCell id="Bqd4WR3j3yUnf75U1oX0-24" value="Comment access" style="ellipse;whiteSpace=wrap;html=1;" parent="Bqd4WR3j3yUnf75U1oX0-6" vertex="1">
          <mxGeometry x="840" y="630" width="120" height="80" as="geometry" />
        </mxCell>
        <mxCell id="Bqd4WR3j3yUnf75U1oX0-25" style="rounded=0;orthogonalLoop=1;jettySize=auto;html=1;entryX=1;entryY=0.5;entryDx=0;entryDy=0;endArrow=open;endFill=0;dashed=1;" parent="Bqd4WR3j3yUnf75U1oX0-6" source="Bqd4WR3j3yUnf75U1oX0-29" target="Bqd4WR3j3yUnf75U1oX0-19" edge="1">
          <mxGeometry relative="1" as="geometry" />
        </mxCell>
        <mxCell id="Bqd4WR3j3yUnf75U1oX0-26" value="extend" style="edgeLabel;html=1;align=center;verticalAlign=middle;resizable=0;points=[];" parent="Bqd4WR3j3yUnf75U1oX0-25" vertex="1" connectable="0">
          <mxGeometry x="-0.5767" relative="1" as="geometry">
            <mxPoint as="offset" />
          </mxGeometry>
        </mxCell>
        <mxCell id="Bqd4WR3j3yUnf75U1oX0-27" style="rounded=0;orthogonalLoop=1;jettySize=auto;html=1;entryX=1;entryY=0.5;entryDx=0;entryDy=0;dashed=1;endArrow=open;endFill=0;" parent="Bqd4WR3j3yUnf75U1oX0-6" source="Bqd4WR3j3yUnf75U1oX0-29" target="Bqd4WR3j3yUnf75U1oX0-17" edge="1">
          <mxGeometry relative="1" as="geometry" />
        </mxCell>
        <mxCell id="Bqd4WR3j3yUnf75U1oX0-28" value="extend" style="edgeLabel;html=1;align=center;verticalAlign=middle;resizable=0;points=[];" parent="Bqd4WR3j3yUnf75U1oX0-27" vertex="1" connectable="0">
          <mxGeometry x="-0.6926" y="-1" relative="1" as="geometry">
            <mxPoint as="offset" />
          </mxGeometry>
        </mxCell>
        <mxCell id="Bqd4WR3j3yUnf75U1oX0-29" value="Edit access" style="ellipse;whiteSpace=wrap;html=1;" parent="Bqd4WR3j3yUnf75U1oX0-6" vertex="1">
          <mxGeometry x="840" y="810" width="120" height="80" as="geometry" />
        </mxCell>
        <mxCell id="Bqd4WR3j3yUnf75U1oX0-30" style="orthogonalLoop=1;jettySize=auto;html=1;entryX=1;entryY=0.5;entryDx=0;entryDy=0;strokeColor=default;rounded=0;dashed=1;endArrow=open;endFill=0;" parent="Bqd4WR3j3yUnf75U1oX0-6" source="Bqd4WR3j3yUnf75U1oX0-34" target="Bqd4WR3j3yUnf75U1oX0-17" edge="1">
          <mxGeometry relative="1" as="geometry" />
        </mxCell>
        <mxCell id="Bqd4WR3j3yUnf75U1oX0-31" value="extend" style="edgeLabel;html=1;align=center;verticalAlign=middle;resizable=0;points=[];" parent="Bqd4WR3j3yUnf75U1oX0-30" vertex="1" connectable="0">
          <mxGeometry x="-0.5627" y="-2" relative="1" as="geometry">
            <mxPoint as="offset" />
          </mxGeometry>
        </mxCell>
        <mxCell id="Bqd4WR3j3yUnf75U1oX0-32" style="rounded=0;orthogonalLoop=1;jettySize=auto;html=1;entryX=1;entryY=0.5;entryDx=0;entryDy=0;endArrow=open;endFill=0;dashed=1;" parent="Bqd4WR3j3yUnf75U1oX0-6" source="Bqd4WR3j3yUnf75U1oX0-34" target="Bqd4WR3j3yUnf75U1oX0-19" edge="1">
          <mxGeometry relative="1" as="geometry" />
        </mxCell>
        <mxCell id="Bqd4WR3j3yUnf75U1oX0-33" value="extend" style="edgeLabel;html=1;align=center;verticalAlign=middle;resizable=0;points=[];" parent="Bqd4WR3j3yUnf75U1oX0-32" vertex="1" connectable="0">
          <mxGeometry x="-0.6926" y="1" relative="1" as="geometry">
            <mxPoint as="offset" />
          </mxGeometry>
        </mxCell>
        <mxCell id="Bqd4WR3j3yUnf75U1oX0-34" value="Read access" style="ellipse;whiteSpace=wrap;html=1;" parent="Bqd4WR3j3yUnf75U1oX0-6" vertex="1">
          <mxGeometry x="840" y="450" width="120" height="80" as="geometry" />
        </mxCell>
        <mxCell id="Bqd4WR3j3yUnf75U1oX0-35" value="include" style="rounded=0;orthogonalLoop=1;jettySize=auto;html=1;dashed=1;endArrow=open;endFill=0;" parent="Bqd4WR3j3yUnf75U1oX0-6" source="Bqd4WR3j3yUnf75U1oX0-39" target="Bqd4WR3j3yUnf75U1oX0-12" edge="1">
          <mxGeometry x="0.2003" y="5" relative="1" as="geometry">
            <mxPoint as="offset" />
          </mxGeometry>
        </mxCell>
        <mxCell id="Bqd4WR3j3yUnf75U1oX0-36" style="rounded=0;orthogonalLoop=1;jettySize=auto;html=1;dashed=1;endArrow=open;endFill=0;" parent="Bqd4WR3j3yUnf75U1oX0-6" source="Bqd4WR3j3yUnf75U1oX0-39" target="Bqd4WR3j3yUnf75U1oX0-11" edge="1">
          <mxGeometry relative="1" as="geometry" />
        </mxCell>
        <mxCell id="Bqd4WR3j3yUnf75U1oX0-38" value="include" style="edgeLabel;html=1;align=center;verticalAlign=middle;resizable=0;points=[];" parent="Bqd4WR3j3yUnf75U1oX0-36" vertex="1" connectable="0">
          <mxGeometry x="-0.5248" y="1" relative="1" as="geometry">
            <mxPoint x="148" y="64" as="offset" />
          </mxGeometry>
        </mxCell>
        <mxCell id="Bqd4WR3j3yUnf75U1oX0-39" value="Enter login" style="ellipse;whiteSpace=wrap;html=1;" parent="Bqd4WR3j3yUnf75U1oX0-6" vertex="1">
          <mxGeometry x="190" y="60" width="120" height="80" as="geometry" />
        </mxCell>
        <mxCell id="Bqd4WR3j3yUnf75U1oX0-40" style="rounded=0;orthogonalLoop=1;jettySize=auto;html=1;dashed=1;endArrow=open;endFill=0;" parent="Bqd4WR3j3yUnf75U1oX0-6" source="Bqd4WR3j3yUnf75U1oX0-43" target="Bqd4WR3j3yUnf75U1oX0-12" edge="1">
          <mxGeometry relative="1" as="geometry" />
        </mxCell>
        <mxCell id="ExK3XM85PsHn1q7F7Pmr-1" value="include" style="edgeLabel;html=1;align=center;verticalAlign=middle;resizable=0;points=[];" vertex="1" connectable="0" parent="Bqd4WR3j3yUnf75U1oX0-40">
          <mxGeometry x="-0.3346" relative="1" as="geometry">
            <mxPoint y="-2" as="offset" />
          </mxGeometry>
        </mxCell>
        <mxCell id="Bqd4WR3j3yUnf75U1oX0-41" style="rounded=0;orthogonalLoop=1;jettySize=auto;html=1;dashed=1;endArrow=open;endFill=0;" parent="Bqd4WR3j3yUnf75U1oX0-6" source="Bqd4WR3j3yUnf75U1oX0-43" target="Bqd4WR3j3yUnf75U1oX0-11" edge="1">
          <mxGeometry relative="1" as="geometry" />
        </mxCell>
        <mxCell id="Bqd4WR3j3yUnf75U1oX0-42" value="include" style="edgeLabel;html=1;align=center;verticalAlign=middle;resizable=0;points=[];" parent="Bqd4WR3j3yUnf75U1oX0-41" vertex="1" connectable="0">
          <mxGeometry x="-0.0438" y="1" relative="1" as="geometry">
            <mxPoint x="-9" y="-13" as="offset" />
          </mxGeometry>
        </mxCell>
        <mxCell id="Bqd4WR3j3yUnf75U1oX0-43" value="Enter password" style="ellipse;whiteSpace=wrap;html=1;" parent="Bqd4WR3j3yUnf75U1oX0-6" vertex="1">
          <mxGeometry x="430" y="60" width="120" height="80" as="geometry" />
        </mxCell>
        <mxCell id="Bqd4WR3j3yUnf75U1oX0-44" value="include" style="rounded=0;orthogonalLoop=1;jettySize=auto;html=1;dashed=1;endArrow=open;endFill=0;" parent="Bqd4WR3j3yUnf75U1oX0-6" source="Bqd4WR3j3yUnf75U1oX0-45" target="Bqd4WR3j3yUnf75U1oX0-11" edge="1">
          <mxGeometry x="0.0773" y="3" relative="1" as="geometry">
            <mxPoint as="offset" />
          </mxGeometry>
        </mxCell>
        <mxCell id="Bqd4WR3j3yUnf75U1oX0-45" value="Submit password" style="ellipse;whiteSpace=wrap;html=1;" parent="Bqd4WR3j3yUnf75U1oX0-6" vertex="1">
          <mxGeometry x="670" y="60" width="120" height="80" as="geometry" />
        </mxCell>
        <mxCell id="Bqd4WR3j3yUnf75U1oX0-46" value="Read instruction" style="ellipse;whiteSpace=wrap;html=1;" parent="Bqd4WR3j3yUnf75U1oX0-6" vertex="1">
          <mxGeometry x="30" y="210" width="120" height="80" as="geometry" />
        </mxCell>
      </root>
    </mxGraphModel>
  </diagram>
</mxfile>
